<?xml version="1.0" standalone="no"?>
<!DOCTYPE svg PUBLIC "-//W3C//DTD SVG 20010904//EN"
 "http://www.w3.org/TR/2001/REC-SVG-20010904/DTD/svg10.dtd">
<svg version="1.0" xmlns="http://www.w3.org/2000/svg"
 width="546.000000pt" height="546.000000pt" viewBox="0 0 546.000000 546.000000"
 preserveAspectRatio="xMidYMid meet">
<metadata>
Created by potrace 1.11, written by Peter Selinger 2001-2013
</metadata>
<g transform="translate(0.000000,546.000000) scale(0.100000,-0.100000)"
fill="#000000" stroke="none">
<path d="M812 5445 c-30 -7 -92 -32 -140 -55 -123 -61 -214 -154 -275 -281
-25 -52 -50 -118 -56 -147 -15 -75 -15 -4389 0 -4464 6 -29 31 -95 56 -147 63
-131 153 -221 284 -284 52 -25 118 -50 147 -56 37 -8 690 -11 2177 -11 l2125
0 0 2410 0 2410 -160 0 -160 0 0 -2250 0 -2250 -1947 2 -1948 3 -58 23 c-261
106 -261 478 0 584 l58 23 1788 3 1787 2 0 2250 0 2250 -1812 -1 c-1443 -1
-1824 -3 -1866 -14z m3033 -850 c170 -45 289 -179 330 -371 11 -50 15 -139 15
-326 l0 -258 -145 0 -144 0 -3 264 c-3 249 -4 266 -24 292 -41 56 -70 69 -149
69 -87 0 -118 -17 -152 -85 l-23 -44 0 -896 0 -896 23 -44 c34 -68 65 -85 152
-85 79 0 108 13 149 69 20 26 21 43 24 297 l3 269 145 0 144 0 0 -260 c0 -198
-4 -279 -16 -338 -52 -257 -236 -398 -497 -379 -238 17 -413 170 -463 405 -21
100 -20 1825 1 1925 40 190 206 361 386 396 71 14 180 12 244 -4z m-2159 -48
c79 -26 169 -91 214 -155 22 -30 53 -92 68 -136 l27 -81 3 -899 c3 -987 3
-995 -56 -1120 -50 -106 -127 -176 -240 -219 -53 -19 -80 -21 -384 -25 l-328
-3 0 1331 0 1331 323 -3 c270 -3 330 -7 373 -21z m894 -1142 l0 -1165 240 0
240 0 0 -165 0 -165 -415 0 -415 0 0 1330 0 1330 175 0 175 0 0 -1165z"/>
<path d="M1340 3235 l0 -1007 109 4 c131 4 156 17 183 94 16 45 17 124 17 909
0 785 -1 864 -17 909 -27 77 -52 90 -183 94 l-109 4 0 -1007z"/>
</g>
</svg>
