<?xml version="1.0" encoding="UTF-8" standalone="no"?>
<svg width="77px" height="77px" viewBox="0 0 77 77" version="1.1" xmlns="http://www.w3.org/2000/svg" xmlns:xlink="http://www.w3.org/1999/xlink">
    <!-- Generator: Sketch 3.6.1 (26313) - http://www.bohemiancoding.com/sketch -->
    <title>Group</title>
    <desc>Created with Sketch.</desc>
    <defs></defs>
    <g id="Page-1" stroke="none" stroke-width="1" fill="none" fill-rule="evenodd">
        <g id="SOCIAL-ICONS-SKETCH" transform="translate(-911.000000, -599.000000)" fill="#D8C763">
            <g id="FULL-WHITE" transform="translate(140.000000, 597.000000)">
                <g id="Group" transform="translate(771.000000, 2.000000)">
                    <path d="M38.53,0.13 C17.56,0.13 0.56,17.13 0.56,38.1 C0.56,59.06 17.56,76.06 38.53,76.06 C59.49,76.06 76.49,59.06 76.49,38.1 C76.49,17.13 59.49,0.13 38.53,0.13 L38.53,0.13 Z M58,51.98 C58,54.38 55.86,56 53.46,56 L25.51,56 C23.1,56 21,54.38 21,51.98 L21,24.01 C21,21.61 23.1,20 25.51,20 L53.46,20 C55.86,20 58,21.61 58,24.01 L58,51.98 L58,51.98 Z" id="Instagram-Circle"></path>
                    <path d="M32.48,38.04 C32.48,34.15 35.63,31 39.52,31 C43.42,31 46.58,34.15 46.58,38.04 C46.58,41.92 43.42,45.07 39.52,45.07 C35.63,45.07 32.48,41.92 32.48,38.04 Z M53,28.85 C53,29.485 52.485,30 51.85,30 L48.15,30 C47.515,30 47,29.485 47,28.85 L47,25.15 C47,24.515 47.515,24 48.15,24 L51.85,24 C52.485,24 53,24.515 53,25.15 L53,28.85 Z M49.79,35 L54,35 L54,51.74 C54,52.38 53.86,53 53.23,53 L25.73,53 C25.1,53 25,52.38 25,51.74 L25,35 L29.17,35 C28.57,35 28.37,37.24 28.37,38.26 C28.37,44.39 33.38,49.28 39.52,49.28 C45.68,49.28 50.68,44.445 50.68,38.315 C50.68,37.295 50.53,35 49.79,35 Z" id="Instagram"></path>
                </g>
            </g>
        </g>
    </g>
</svg>