<?xml version="1.0" encoding="UTF-8" standalone="no"?>
<svg width="77px" height="77px" viewBox="0 0 77 77" version="1.1" xmlns="http://www.w3.org/2000/svg" xmlns:xlink="http://www.w3.org/1999/xlink">
    <!-- Generator: Sketch 3.6.1 (26313) - http://www.bohemiancoding.com/sketch -->
    <title>Twitter</title>
    <desc>Created with Sketch.</desc>
    <defs></defs>
    <g id="Page-1" stroke="none" stroke-width="1" fill="none" fill-rule="evenodd">
        <g id="SOCIAL-ICONS-SKETCH" transform="translate(-784.000000, -599.000000)" fill="#D8C763">
            <g id="FULL-WHITE" transform="translate(140.000000, 597.000000)">
                <path d="M682.53,2.13 C661.56,2.13 644.56,19.13 644.56,40.1 C644.56,61.06 661.56,78.06 682.53,78.06 C703.49,78.06 720.49,61.06 720.49,40.1 C720.49,19.13 703.49,2.13 682.53,2.13 L682.53,2.13 Z M696.96,32.05 C696.97,32.39 696.98,32.73 696.98,33.07 C696.98,43.48 689.25,55.49 675.12,55.49 C670.78,55.49 666.74,54.18 663.34,51.95 C663.94,52.02 664.55,52.06 665.17,52.06 C668.77,52.06 672.09,50.8 674.72,48.69 C671.35,48.62 668.52,46.35 667.54,43.22 C668.01,43.31 668.49,43.36 668.98,43.36 C669.69,43.36 670.45,43.26 671.09,43.08 C667.57,42.36 665,39.17 665,35.35 L665,35.26 C666,35.84 667.15,36.2 668.41,36.24 C666.34,34.83 664.95,32.41 664.95,29.68 C664.95,28.24 665.31,26.88 665.97,25.72 C669.76,30.49 675.41,33.62 681.8,33.95 C681.66,33.37 681.595,32.77 681.595,32.16 C681.595,27.81 685.032,24.28 689.273,24.28 C691.483,24.28 693.481,25.23 694.881,26.76 C696.631,26.41 698.271,25.76 699.761,24.85 C699.191,26.69 697.97,28.24 696.38,29.21 C697.94,29.02 699.42,28.6 700.79,27.97 C699.77,29.55 698.46,30.94 696.96,32.05 L696.96,32.05 Z" id="Twitter"></path>
            </g>
        </g>
    </g>
</svg>